HIERARCHY
ROOT hip
{
  OFFSET 0 0 0
  CHANNELS 6 Xposition Yposition Zposition Zrotation Yrotation Xrotation
  JOINT abdomen
  {
    OFFSET 0 20.6881 -0.73152
    CHANNELS 3 Zrotation Xrotation Yrotation
    JOINT chest
    {
      OFFSET 0 11.7043 -0.48768
      CHANNELS 3 Zrotation Xrotation Yrotation
      JOINT neck
      {
        OFFSET 0 22.1894 -2.19456
        CHANNELS 3 Zrotation Xrotation Yrotation
        JOINT head
        {
          OFFSET -0.24384 7.07133 1.2192
          CHANNELS 3 Zrotation Xrotation Yrotation
          JOINT leftEye
          {
            OFFSET 4.14528 8.04674 8.04672
            CHANNELS 3 Zrotation Xrotation Yrotation
            End Site
            {
              OFFSET 1 0 0
            }
          }
          JOINT rightEye
          {
            OFFSET -3.6576 8.04674 8.04672
            CHANNELS 3 Zrotation Xrotation Yrotation
            End Site
            {
              OFFSET 1 0 0
            }
          }
        }
      }
      JOINT rCollar
      {
        OFFSET -2.68224 19.2634 -4.8768
        CHANNELS 3 Zrotation Xrotation Yrotation
        JOINT rShldr
        {
          OFFSET -8.77824 -1.95073 1.46304
          CHANNELS 3 Zrotation Xrotation Yrotation
          JOINT rForeArm
          {
            OFFSET -28.1742 -1.7115 0.48768
            CHANNELS 3 Zrotation Xrotation Yrotation
            JOINT rHand
            {
              OFFSET -22.5879 0.773209 7.07136
              CHANNELS 3 Zrotation Xrotation Yrotation
              JOINT rThumb1
              {
                OFFSET -1.2192 -0.487915 3.41376
                CHANNELS 3 Zrotation Xrotation Yrotation
                JOINT rThumb2
                {
                  OFFSET -3.37035 -0.52449 3.41376
                  CHANNELS 3 Zrotation Xrotation Yrotation
                  End Site
                  {
                    OFFSET -1.78271 -1.18214 1.43049
                  }
                }
              }
              JOINT rIndex1
              {
                OFFSET -7.75947 0.938293 5.60832
                CHANNELS 3 Zrotation Xrotation Yrotation
                JOINT rIndex2
                {
                  OFFSET -2.54057 -0.884171 1.56538
                  CHANNELS 3 Zrotation Xrotation Yrotation
                  End Site
                  {
                    OFFSET -1.62519 -0.234802 1.16502
                  }
                }
              }
              JOINT rMid1
              {
                OFFSET -8.24714 1.18213 3.41376
                CHANNELS 3 Zrotation Xrotation Yrotation
                JOINT rMid2
                {
                  OFFSET -3.10165 -0.590103 1.0647
                  CHANNELS 3 Zrotation Xrotation Yrotation
                  End Site
                  {
                    OFFSET -2.48547 -0.328903 0.83742
                  }
                }
              }
              JOINT rRing1
              {
                OFFSET -8.82822 0.546677 1.51678
                CHANNELS 3 Zrotation Xrotation Yrotation
                JOINT rRing2
                {
                  OFFSET -2.60934 -0.819778 -0.0198488
                  CHANNELS 3 Zrotation Xrotation Yrotation
                  End Site
                  {
                    OFFSET -2.33842 -0.294052 0.168128
                  }
                }
              }
              JOINT rPinky1
              {
                OFFSET -8.27202 -0.0477905 -0.4584
                CHANNELS 3 Zrotation Xrotation Yrotation
                JOINT rPinky2
                {
                  OFFSET -1.82734 -0.647385 -0.700984
                  CHANNELS 3 Zrotation Xrotation Yrotation
                  End Site
                  {
                    OFFSET -1.69225 -0.51767 -0.607171
                  }
                }
              }
            }
          }
        }
      }
      JOINT lCollar
      {
        OFFSET 2.68224 19.2634 -4.8768
        CHANNELS 3 Zrotation Xrotation Yrotation
        JOINT lShldr
        {
          OFFSET 8.77824 -1.95073 1.46304
          CHANNELS 3 Zrotation Xrotation Yrotation
          JOINT lForeArm
          {
            OFFSET 28.1742 -1.7115 0.48768
            CHANNELS 3 Zrotation Xrotation Yrotation
            JOINT lHand
            {
              OFFSET 22.5879 0.773209 7.07136
              CHANNELS 3 Zrotation Xrotation Yrotation
              JOINT lThumb1
              {
                OFFSET 1.2192 -0.487915 3.41376
                CHANNELS 3 Zrotation Xrotation Yrotation
                JOINT lThumb2
                {
                  OFFSET 3.37035 -0.52449 3.41376
                  CHANNELS 3 Zrotation Xrotation Yrotation
                  End Site
                  {
                    OFFSET 1.78271 -1.18214 1.43049
                  }
                }
              }
              JOINT lIndex1
              {
                OFFSET 7.75947 0.938293 5.60832
                CHANNELS 3 Zrotation Xrotation Yrotation
                JOINT lIndex2
                {
                  OFFSET 2.54057 -0.884171 1.56538
                  CHANNELS 3 Zrotation Xrotation Yrotation
                  End Site
                  {
                    OFFSET 1.62519 -0.234802 1.16502
                  }
                }
              }
              JOINT lMid1
              {
                OFFSET 8.24714 1.18213 3.41376
                CHANNELS 3 Zrotation Xrotation Yrotation
                JOINT lMid2
                {
                  OFFSET 3.10165 -0.590103 1.0647
                  CHANNELS 3 Zrotation Xrotation Yrotation
                  End Site
                  {
                    OFFSET 2.48547 -0.328903 0.83742
                  }
                }
              }
              JOINT lRing1
              {
                OFFSET 8.82822 0.546677 1.51678
                CHANNELS 3 Zrotation Xrotation Yrotation
                JOINT lRing2
                {
                  OFFSET 2.60934 -0.819778 -0.0198488
                  CHANNELS 3 Zrotation Xrotation Yrotation
                  End Site
                  {
                    OFFSET 2.33842 -0.294052 0.168128
                  }
                }
              }
              JOINT lPinky1
              {
                OFFSET 8.27202 -0.0477905 -0.4584
                CHANNELS 3 Zrotation Xrotation Yrotation
                JOINT lPinky2
                {
                  OFFSET 1.82734 -0.647385 -0.700984
                  CHANNELS 3 Zrotation Xrotation Yrotation
                  End Site
                  {
                    OFFSET 1.69225 -0.51767 -0.607171
                  }
                }
              }
            }
          }
        }
      }
    }
  }
  JOINT rButtock
  {
    OFFSET -8.77824 4.35084 1.2192
    CHANNELS 3 Zrotation Xrotation Yrotation
    JOINT rThigh
    {
      OFFSET 0 -1.70687 -2.19456
      CHANNELS 3 Zrotation Xrotation Yrotation
      JOINT rShin
      {
        OFFSET 0 -36.8199 0.73152
        CHANNELS 3 Zrotation Xrotation Yrotation
        JOINT rFoot
        {
          OFFSET 0.73152 -45.1104 -5.12064
          CHANNELS 3 Zrotation Xrotation Yrotation
          End Site
          {
            OFFSET -1.1221 -3.69964 12.103
          }
        }
      }
    }
  }
  JOINT lButtock
  {
    OFFSET 8.77824 4.35084 1.2192
    CHANNELS 3 Zrotation Xrotation Yrotation
    JOINT lThigh
    {
      OFFSET 0 -1.70687 -2.19456
      CHANNELS 3 Zrotation Xrotation Yrotation
      JOINT lShin
      {
        OFFSET 0 -36.8199 0.73152
        CHANNELS 3 Zrotation Xrotation Yrotation
        JOINT lFoot
        {
          OFFSET -0.73152 -45.1104 -5.12064
          CHANNELS 3 Zrotation Xrotation Yrotation
          End Site
          {
            OFFSET 1.1221 -3.69964 12.103
          }
        }
      }
    }
  }
}
MOTION
Frames:	5
Frame Time:	0.03333
94.12819999999999 58.1804 -52.0687 -127.480735 73.221792 -138.598844 12.675983 22.547313 68.21967 -9.202177 -0.684566 -48.727275 -7.431786 29.827223 -129.500139 21.708556 36.649802 126.565347 -0.145664 0.013409 -10.518904 -9.283203 -0.789074 9.69594 -57.190452 74.577413 62.303844 -100.468852 14.000939 115.016272 -12.307407 -25.275687 -96.798549 128.389793 -59.912756 112.921609 3.068002 -12.200254 12.318629 -70.505847 48.923202 55.438157 -97.686736 32.75637 88.211963 -11.200747 51.33902 -19.193632 -7.217566 -50.134048 -18.090232 -121.959749 12.978669 137.765533 -167.528912 -2.41884 178.771503 144.125169 37.458675 -152.906242 24.08995 81.273848 31.002309 -63.801243 -19.316884 -35.644096 1.158582 -0.41501 -11.094826 -70.063879 -1.461839 -1.92179 -159.085647 -28.432562 -106.45021 -171.585397 -0.253877 -153.587187 94.020371 38.774051 -44.597129 140.422916 -29.50584 -60.36778 -12.305397 -0.667953 13.569202 -4.913694 -60.574939 -18.757874 1.740302 2.1181 5.897659 14.596248 41.584515 -5.007346 122.402313 -45.555626 128.666849 76.6887 -59.100026 101.016869 2.12806 6.932434 16.169516 82.721254 -73.627794 70.332704 -129.844881 70.09622 -39.15572 110.036927 63.208093 -166.495591 48.10837 -56.568585 -11.130193 2.964583 49.031662 -131.64527 -13.377818 0.061255 0.0 71.18931 -53.0569 0.0 -69.746516 51.601318 164.16335 -2.282359 -0.357738 -93.183318
95.5054 58.227399999999996 -52.66610000000001 -130.636093 72.259923 -139.707467 14.070157 21.698126 -0.0 -4.134554 -9.830669 18.725964 4.659167 32.603894 167.893171 -17.568881 41.457082 -158.065998 -7.415302 0.910175 -13.976235 -8.488663 -1.383879 18.486153 -9.450531 -60.578231 -30.339133 -158.350211 10.598609 -135.794385 62.076302 73.958887 -147.288737 155.516038 -34.977866 137.080775 -14.541307 -1.757444 12.260395 -102.843687 21.787216 103.63845 -162.373716 -40.175453 115.410045 12.022249 50.076017 -0.026585 -58.520886 64.184461 37.339134 -0.506848 -27.115526 23.579867 -21.196494 -4.205899 -1.221309 57.210314 -8.000733 22.542027 5.962071 -23.740386 -4.30073 -128.459546 49.993296 153.252787 -12.652858 -45.217854 -4.535901 90.473559 -34.412363 137.452216 169.416873 -2.864276 150.375939 0.009091 18.377639 -6.101489 8.934124 -3.986174 -2.325767 0.843573 -83.04987 90.567323 130.958713 14.321323 -127.284731 130.973821 80.305063 -138.849898 3.37677 18.577591 3.284286 172.785948 15.690908 -142.883149 -115.486709 88.117582 114.451338 -31.191121 -50.196753 -35.104332 154.510616 19.494054 119.960967 -61.413094 38.696704 27.259167 -5.40809 2.02054 -2.747897 -7.256568 0.22332 -0.0 24.5034 59.921434 86.150522 -41.242934 4.633671 -126.726967 -151.087305 75.03663 -29.756805 -157.218122 2.665945 -180.0 -52.336165 -67.63013 168.12015 -88.981573 21.705573 13.92759
96.59450000000001 58.1856 -53.234700000000004 -130.400319 72.157753 -137.402759 13.099595 19.006997 0.0 -2.658894 -9.171823 18.727433 -0.971123 13.922953 -0.479842 10.96551 -26.617505 5.639925 -11.417994 1.028182 -10.257504 -7.816823 -1.857787 26.700607 2.130861 3.383507 -7.470155 -14.152761 -82.679338 -81.789822 75.83094 -6.931384 -25.243149 177.767152 26.848714 148.425366 -176.029829 -2.817863 76.745298 -80.276815 -12.673574 31.198179 10.612583 -8.283411 6.852361 -6.286613 -0.78703 11.535558 -167.514447 10.101944 144.411874 -146.482461 77.46958 120.54895 -69.772424 74.639543 69.672742 -67.314996 38.771452 55.872545 7.532721 -10.828562 2.512205 -19.702516 23.185224 27.945275 -6.392627 -26.228665 -3.09605 138.383698 65.646072 151.486003 -139.178045 82.63538 -156.037003 -163.355009 -17.416189 -148.066538 -167.603612 -16.436941 -85.820691 44.445038 -48.228517 10.583284 140.280803 -7.318456 -134.707373 17.085349 73.824002 -25.049424 10.425866 45.427146 -5.327157 50.89695 65.707349 -22.295872 18.049257 5.286792 16.403132 128.06203 -13.322792 -168.948627 134.150101 0.30398 117.046877 95.671093 -13.884224 123.651683 -147.107366 67.19763 -19.318244 115.755436 59.862734 60.267044 37.998684 51.355782 80.882619 -80.314155 -11.360239 -151.027134 -150.798917 77.845202 -29.757581 -154.442629 4.888496 -79.895871 -84.826276 18.755729 -64.316065 -92.004711 41.583929 165.940852
97.4376 58.140499999999996 -53.858799999999995 -128.906316 72.079162 -134.039103 10.297353 14.089472 89.050262 -6.440786 -1.04325 -69.735926 10.141745 17.282173 58.870687 -28.02834 -13.025413 -60.565993 -12.692975 0.448114 -4.027356 -8.209207 -2.300173 31.258177 -2.155903 37.861392 2.602236 81.281785 -34.078574 26.877158 -2.711492 30.192969 58.205032 -8.625334 45.615732 -0.094888 -173.687912 -4.880385 77.084148 -157.48168 -11.186788 65.460456 -29.372373 22.934198 31.300517 -146.151052 34.668518 105.999565 1.606527 -34.133161 -6.049293 -37.893816 54.356348 50.223782 -74.86006 76.023508 81.537121 177.825328 -1.318357 146.216054 10.288138 14.484917 9.407415 -15.958783 12.325478 7.058391 -5.022375 -18.464688 -3.167198 -68.840828 22.879022 8.110228 99.33093 38.078708 -77.187849 -56.885861 -59.72623 -48.263968 8.949703 -2.268786 -2.62449 114.962325 -16.212053 -125.696548 -0.42921 12.982058 9.994786 100.553143 42.24367 -56.053072 157.138797 -50.860888 -161.039045 -18.301623 18.947096 -10.813336 16.148444 2.566571 14.478311 138.564602 -8.736117 -172.348107 144.434574 20.145143 128.915244 145.426485 51.052164 120.538722 -77.639642 42.317113 -36.198119 68.978711 19.522741 -180.0 37.7397 -34.67102 -120.537279 -94.085942 16.867957 0.651904 48.078594 16.846986 44.263069 -62.225487 -52.335787 -57.0949 -67.994595 56.137001 -16.113686 2.72055 28.503716 76.907364
98.1758 58.0407 -54.53209999999999 -127.173334 71.767366 -130.984982 11.330696 10.543762 132.402684 -4.138003 2.652888 -113.09634 10.81643 31.110188 143.837417 -25.666356 37.064493 -135.470604 -9.70971 -0.048014 0.565285 -9.332825 -2.714593 32.373485 2.020743 -31.115419 -15.011045 -111.632528 -20.537352 -147.501928 168.746551 -9.016402 -128.529887 -19.07383 61.004441 4.996857 -171.76398 -7.486099 78.620658 -127.612229 -8.673221 59.438637 -146.356921 -13.007487 105.082424 26.949439 -5.190887 -5.700795 -163.521708 -5.871331 144.549892 -6.621547 35.445116 -4.46704 -5.667182 13.723311 2.885954 -158.524386 -51.523748 149.797078 -124.675662 -29.426033 -125.947122 -65.949221 -60.073213 -77.792924 -1.091 -1.571286 -6.358608 -67.989636 4.546006 -6.11476 0.191181 7.823525 -38.179992 -0.044945 25.019129 -2.302024 90.003216 36.775569 -43.568412 -19.793178 -12.345267 -27.423982 -15.075694 -43.972312 21.525022 84.01937 33.438412 -67.343097 76.014076 71.329911 -75.215669 6.756562 -12.187616 21.122925 10.536822 1.673921 12.236382 154.852551 -21.486615 -175.377398 161.641852 60.546955 134.673989 8.15762 -11.130684 49.675183 76.922338 28.689967 30.618581 -84.181304 31.914443 -180.0 -42.4078 -30.475984 -160.749267 -35.790312 -10.766841 -105.173263 -167.444816 83.303054 -12.638676 -149.258953 6.827161 -78.6966 -82.193336 17.798577 -36.304558 -125.138509 69.762401 -168.041348
